<svg width="51" height="41" viewBox="0 0 51 41" fill="none" xmlns="http://www.w3.org/2000/svg">
<path d="M36.6562 20.5C39.2969 20.5 41.4375 22.2209 41.4375 24.3438V25.625C41.4375 30.6768 35.5103 35.875 25.5 35.875C15.4897 35.875 9.5625 30.6768 9.5625 25.625V24.3438C9.5625 22.2209 11.7031 20.5 14.3438 20.5H36.6562ZM36.6562 23.0625H14.3438C13.4635 23.0625 12.75 23.6361 12.75 24.3438V25.625C12.75 29.309 17.315 33.3125 25.5 33.3125C33.685 33.3125 38.25 29.309 38.25 25.625V24.3438C38.25 23.6361 37.5365 23.0625 36.6562 23.0625ZM25.5 3.84375C30.3411 3.84375 34.2656 6.99874 34.2656 10.8906C34.2656 14.7825 30.3411 17.9375 25.5 17.9375C20.6589 17.9375 16.7344 14.7825 16.7344 10.8906C16.7344 6.99874 20.6589 3.84375 25.5 3.84375ZM25.5 6.40625C22.4193 6.40625 19.9219 8.41397 19.9219 10.8906C19.9219 13.3673 22.4193 15.375 25.5 15.375C28.5807 15.375 31.0781 13.3673 31.0781 10.8906C31.0781 8.41397 28.5807 6.40625 25.5 6.40625Z" fill="#212121"/>
</svg>
