<svg width="51" height="41" viewBox="0 0 51 41" fill="none" xmlns="http://www.w3.org/2000/svg">
<path d="M43.5221 26.4565L40.0159 23.6378C38.9707 22.8043 37.5599 22.3344 36.0878 22.3293C34.6156 22.3243 33.1999 22.7846 32.1459 23.6109C31.5835 24.0656 30.8416 24.3485 30.0478 24.4109C29.254 24.4734 28.4579 24.3114 27.7966 23.953C25.1863 22.5525 22.9439 20.7533 21.1969 18.6576C20.7589 18.12 20.5647 17.4774 20.6472 16.8382C20.7296 16.199 21.0836 15.6021 21.6495 15.1482C22.6681 14.3001 23.2332 13.1652 23.224 11.9863C23.2147 10.8075 22.6319 9.67835 21.6001 8.84063L18.0938 6.02188C17.0441 5.18088 15.6225 4.70865 14.1405 4.70865C12.6585 4.70865 11.237 5.18088 10.1872 6.02188L9.1784 6.83419C3.91903 11.0623 4.31268 19.9516 15.2554 28.7436C21.8535 34.0492 28.4947 36.2709 33.8799 36.2709C35.4652 36.3133 37.0451 36.1017 38.5276 35.6484C40.0101 35.195 41.3655 34.509 42.5149 33.6303L43.5253 32.8179C44.5733 31.9737 45.1617 30.8295 45.1611 29.6367C45.1605 28.4439 44.571 27.3001 43.5221 26.4565ZM41.2686 31.0063L40.2581 31.8186C36.1144 35.1498 26.9678 34.5412 17.5057 26.9332C8.04365 19.3251 7.28503 11.9669 11.4288 8.63563L12.4312 7.8246C12.8826 7.46305 13.4938 7.26005 14.131 7.26005C14.7682 7.26005 15.3794 7.46305 15.8307 7.8246L19.337 10.6433C19.7801 11.0014 20.0317 11.4845 20.0379 11.9896C20.0442 12.4947 19.8046 12.9817 19.3704 13.3468C18.2935 14.2181 17.6217 15.3604 17.4677 16.5825C17.3136 17.8045 17.6866 19.032 18.5242 20.0593C20.5092 22.4474 23.0619 24.4965 26.0355 26.0888C27.3095 26.7623 28.8324 27.0639 30.3497 26.9433C31.8671 26.8228 33.287 26.2873 34.3724 25.4264C34.8256 25.0732 35.4332 24.8771 36.0644 24.8802C36.6956 24.8833 37.3001 25.0854 37.748 25.4431L41.2542 28.2618C41.4802 28.4409 41.6599 28.6541 41.783 28.8891C41.9061 29.1242 41.9702 29.3766 41.9715 29.6316C41.9728 29.8867 41.9114 30.1395 41.7908 30.3754C41.6701 30.6113 41.4927 30.8257 41.2686 31.0063Z" fill="black"/>
</svg>
