<svg width="51" height="32" viewBox="0 0 51 32" fill="none" xmlns="http://www.w3.org/2000/svg">
<path d="M46.0395 0.889648L25.5896 0.929688L5.13984 0.849609H5.12988C2.38066 0.849609 0.199219 2.92363 0.199219 5.51816V27.2514C0.199219 29.8459 2.38066 31.9199 5.12988 31.9199H46.0693C48.8186 31.9199 51 29.8459 51 27.2514V5.51816C51 2.92363 48.8385 0.889648 46.0395 0.889648ZM44.4357 4.09277L26.1674 17.5219L26.0977 17.5699L26.0379 17.626C25.8187 17.8182 25.5598 17.8422 25.4203 17.8422C25.2809 17.8422 25.0219 17.8102 24.8127 17.61L24.7529 17.5539L7.29141 4.02871L25.5896 4.1248L44.4357 4.09277ZM46.0693 28.7168H5.12988C4.78125 28.7168 4.18359 28.1883 4.18359 27.2514V6.03066L21.8742 19.7721C22.7707 20.5729 24.0357 21.0373 25.3805 21.0533H25.4402C26.765 21.0533 28.0002 20.6129 28.9066 19.8441L47.0355 6.50313V27.2514C47.0156 28.1883 46.418 28.7168 46.0693 28.7168Z" fill="#010002"/>
</svg>
